<?xml version="1.0" encoding="utf-8"?><svg width="72" height="64" viewBox="0 0 72 64" xmlns="http://www.w3.org/2000/svg" xmlns:xlink="http://www.w3.org/1999/xlink"><svg width="32" height="32" viewBox="0 0 32 32" id="facebook-bg" x="40" xmlns="http://www.w3.org/2000/svg"><defs><style>.asvg-facebook-fill{fill:#3c599b}</style></defs><path class="asvg-facebook-fill" d="M30.242 0H1.758C.787 0 0 .787 0 1.758v28.484C0 31.213.787 32 1.758 32h15.335V19.608h-4.171v-4.839h4.171v-3.552c0-4.135 2.525-6.386 6.21-6.386h.12c1.271 0 2.525.069 3.76.204l-.153-.013v4.322h-2.56c-2.004 0-2.395.953-2.395 2.353v3.073h4.782l-.619 4.839h-4.16v12.392h8.162c.971 0 1.758-.787 1.758-1.758V1.759c0-.971-.787-1.758-1.758-1.758z"/></svg><svg width="32" height="32" viewBox="0 0 32 32" id="line-bg" y="32" xmlns="http://www.w3.org/2000/svg"><defs><style>.bsvg-line-fill{fill:#1bb91f}</style></defs><path class="bsvg-line-fill" d="M26.215 0H5.819a5.82 5.82 0 0 0-5.82 5.79v20.397A5.824 5.824 0 0 0 5.789 32h20.397a5.82 5.82 0 0 0 5.813-5.783V5.819a5.82 5.82 0 0 0-5.783-5.82h-.002zm-1.111 20.396c-2.462 2.813-7.912 6.242-9.143 6.766s-1.055-.334-1.009-.626l.169-.985a2.382 2.382 0 0 0-.043-1.072l.004.017c-.13-.324-.647-.492-1.027-.573-5.616-.738-9.755-4.652-9.755-9.326 0-5.215 5.226-9.456 11.65-9.456S27.6 9.382 27.6 14.597c0 2.085-.809 3.967-2.497 5.799z"/><path class="bsvg-line-fill" d="M13.584 12.076h-.823a.225.225 0 0 0-.225.225v5.078a.229.229 0 0 0 .229.225h.816c.125 0 .227-.1.229-.225v-5.071a.225.225 0 0 0-.225-.225h-.004zM19.207 12.076h-.82a.225.225 0 0 0-.225.225v3.017l-2.338-3.14v-.025h-.996a.225.225 0 0 0-.225.225v5a.229.229 0 0 0 .229.225h.816c.125 0 .227-.1.229-.225v-3.014l2.328 3.144a.23.23 0 0 0 .056.056h.912c.125 0 .227-.1.229-.225v-5.032a.225.225 0 0 0-.225-.225h-.004zM11.604 16.334H9.392v-4.026a.225.225 0 0 0-.225-.225h-.823a.225.225 0 0 0-.225.225V17.381c0 .061.024.116.063.157.04.039.096.063.156.063H11.603a.229.229 0 0 0 .225-.229v-.809a.23.23 0 0 0-.225-.225zM23.722 13.363a.225.225 0 0 0 .225-.225v-.83a.225.225 0 0 0-.225-.225H20.453a.227.227 0 0 0-.157.063.222.222 0 0 0-.063.155v5.08c0 .061.024.116.063.157.04.039.096.063.156.063H23.717a.229.229 0 0 0 .225-.229v-.809a.225.225 0 0 0-.225-.225h-2.219v-.865h2.219a.225.225 0 0 0 .225-.225v-.83c0-.125-.1-.227-.225-.229h-2.219v-.826z"/></svg><svg width="40" height="32" viewBox="0 0 40 32" id="twitter-bg" xmlns="http://www.w3.org/2000/svg"><defs><style>.csvg-twitter-fill{fill:#2aa3f0}</style></defs><path class="csvg-twitter-fill" d="M12.499 32.004c14.996 0 23.211-12.309 23.211-22.983q0-.524-.025-1.055a16.648 16.648 0 0 0 4.018-4.121l.037-.057a15.99 15.99 0 0 1-4.602 1.262l-.079.008A8.16 8.16 0 0 0 38.626.649l.017-.057a16.154 16.154 0 0 1-5.072 1.945l-.105.018a8.174 8.174 0 0 0-14.124 5.532v.022c0 .647.077 1.277.222 1.88l-.011-.055A23.191 23.191 0 0 1 2.777 1.532l-.031-.039a7.945 7.945 0 0 0-1.098 4.054 8.027 8.027 0 0 0 3.597 6.699l.03.018a8.115 8.115 0 0 1-3.72-1.03l.041.021v.102a8.092 8.092 0 0 0 6.49 7.911l.052.009a8.295 8.295 0 0 1-3.734.129l.052.009c1.083 3.252 4.072 5.566 7.61 5.627h.007a16.348 16.348 0 0 1-10.079 3.447h-.053.003a16.9 16.9 0 0 1-2.025-.124l.081.008c3.532 2.279 7.846 3.633 12.476 3.633h.024-.001z"/></svg></svg>