<!-- Generated by IcoMoon.io -->
<svg version="1.1" xmlns="http://www.w3.org/2000/svg" width="32" height="32" viewBox="0 0 32 32">
<defs><style>.svg-facebook-fill {fill:#3c599b;}</style></defs>
<title>facebook</title>
<path class="svg-facebook-fill" d="M30.242 0h-28.484c-0.971 0-1.758 0.787-1.758 1.758v0 28.484c0 0.971 0.787 1.758 1.758 1.758v0h15.335v-12.392h-4.171v-4.839h4.171v-3.552c0-4.135 2.525-6.386 6.21-6.386 0.036-0 0.078-0 0.12-0 1.271 0 2.525 0.069 3.76 0.204l-0.153-0.013v4.322h-2.56c-2.004 0-2.395 0.953-2.395 2.353v3.073h4.782l-0.619 4.839h-4.16v12.392h8.162c0.971 0 1.758-0.787 1.758-1.758v0-28.484c0-0.971-0.787-1.758-1.758-1.758v0z"></path>
</svg>
