<!-- Generated by IcoMoon.io -->
<svg version="1.1" xmlns="http://www.w3.org/2000/svg" width="32" height="32" viewBox="0 0 32 32">
<title>line</title>
<path d="M26.215 0h-20.396c-0 0-0 0-0 0-3.204 0-5.804 2.59-5.82 5.79v20.397c0.006 3.2 2.593 5.795 5.79 5.813h20.397c3.199-0.004 5.793-2.588 5.813-5.783v-20.398c0-0 0-0 0-0 0-3.202-2.586-5.8-5.783-5.82h-0.002zM25.104 20.396v0c-2.462 2.813-7.912 6.242-9.143 6.766s-1.055-0.334-1.009-0.626l0.169-0.985c0.026-0.133 0.041-0.286 0.041-0.442 0-0.218-0.029-0.429-0.084-0.63l0.004 0.017c-0.13-0.324-0.647-0.492-1.027-0.573-5.616-0.738-9.755-4.652-9.755-9.326 0-5.215 5.226-9.456 11.65-9.456s11.65 4.241 11.65 9.456c0 2.085-0.809 3.967-2.497 5.799z"></path>
<path d="M13.584 12.076h-0.819c-0.001-0-0.002-0-0.004-0-0.124 0-0.225 0.101-0.225 0.225 0 0 0 0 0 0v0 5.078c0.002 0.125 0.104 0.225 0.229 0.225 0 0 0 0 0 0h0.816c0 0 0 0 0 0 0.125 0 0.227-0.1 0.229-0.225v-5.071c0 0 0-0 0-0 0-0.124-0.101-0.225-0.225-0.225-0.001 0-0.002 0-0.004 0h0z"></path>
<path d="M19.207 12.076h-0.816c-0.001-0-0.002-0-0.004-0-0.124 0-0.225 0.101-0.225 0.225 0 0 0 0 0 0v0 3.017l-2.338-3.14v-0.025h-0.992c-0.001-0-0.002-0-0.004-0-0.124 0-0.225 0.101-0.225 0.225 0 0 0 0 0 0v0 5c0.002 0.125 0.104 0.225 0.229 0.225 0 0 0 0 0 0h0.816c0 0 0 0 0 0 0.125 0 0.227-0.1 0.229-0.225v-3.014l2.328 3.144c0.016 0.022 0.034 0.041 0.056 0.056l0.001 0h0.911c0 0 0 0 0 0 0.125 0 0.227-0.1 0.229-0.225v-5.032c0 0 0-0 0-0 0-0.124-0.101-0.225-0.225-0.225-0.001 0-0.002 0-0.004 0h0z"></path>
<path d="M11.604 16.334h-2.212v-4.026c0-0.124-0.101-0.225-0.225-0.225v0h-0.819c-0.001-0-0.002-0-0.004-0-0.124 0-0.225 0.101-0.225 0.225 0 0 0 0 0 0v0 5.071c0 0.001 0 0.001 0 0.002 0 0.061 0.024 0.116 0.063 0.157l-0-0c0.040 0.039 0.096 0.063 0.156 0.063 0.001 0 0.001 0 0.002 0h3.263c0.125-0.002 0.225-0.104 0.225-0.229 0 0 0-0 0-0v0-0.809c-0.002-0.123-0.102-0.223-0.225-0.225h-0z"></path>
<path d="M23.722 13.363c0.124 0 0.225-0.101 0.225-0.225v0-0.83c0-0.124-0.101-0.225-0.225-0.225h-3.267c-0.001 0-0.001 0-0.002 0-0.061 0-0.116 0.024-0.157 0.063l0-0c-0.039 0.040-0.063 0.095-0.063 0.155v5.078c0 0.001 0 0.001 0 0.002 0 0.061 0.024 0.116 0.063 0.157l-0-0c0.040 0.039 0.096 0.063 0.156 0.063 0.001 0 0.001 0 0.002 0h3.263c0.125-0.002 0.225-0.104 0.225-0.229 0 0 0-0 0-0v0-0.809c0-0.124-0.101-0.225-0.225-0.225h-2.219v-0.865h2.219c0.124 0 0.225-0.101 0.225-0.225v0-0.83c0 0 0-0 0-0 0-0.125-0.1-0.227-0.225-0.229h-2.219v-0.826z"></path>
</svg>
