<!-- Generated by IcoMoon.io -->
<svg version="1.1" xmlns="http://www.w3.org/2000/svg" width="40" height="32" viewBox="0 0 40 32">
<title>twitter</title>
<path d="M12.499 32.004c14.996 0 23.211-12.309 23.211-22.983q0-0.524-0.025-1.055c1.595-1.155 2.941-2.54 4.018-4.121l0.037-0.057c-1.363 0.614-2.945 1.062-4.602 1.262l-0.079 0.008c1.682-1.007 2.948-2.56 3.567-4.409l0.017-0.057c-1.491 0.892-3.225 1.573-5.072 1.945l-0.105 0.018c-1.494-1.584-3.607-2.571-5.951-2.571-4.49 0-8.135 3.621-8.173 8.103l-0 0.004c0 0.005-0 0.012-0 0.018 0 0.647 0.077 1.277 0.222 1.88l-0.011-0.055c-6.78-0.337-12.751-3.535-16.776-8.402l-0.031-0.039c-0.69 1.161-1.098 2.56-1.098 4.054 0 2.797 1.429 5.26 3.597 6.699l0.030 0.018c-1.356-0.044-2.617-0.412-3.72-1.030l0.041 0.021c0 0.035 0 0.067 0 0.102 0.010 3.912 2.795 7.17 6.49 7.911l0.052 0.009c-0.642 0.18-1.378 0.283-2.139 0.283-0.546 0-1.079-0.053-1.595-0.154l0.052 0.009c1.083 3.252 4.072 5.566 7.61 5.627l0.007 0c-2.754 2.15-6.265 3.447-10.079 3.447-0.018 0-0.035-0-0.053-0h0.003c-0.686-0.001-1.362-0.043-2.025-0.124l0.081 0.008c3.532 2.279 7.846 3.633 12.476 3.633 0.008 0 0.016 0 0.024 0h-0.001z"></path>
</svg>
